<mxfile host="app.diagrams.net" agent="Mozilla/5.0 (Macintosh; Intel Mac OS X 10_15_7) AppleWebKit/537.36 (KHTML, like Gecko) Chrome/131.0.0.0 Safari/537.36" version="26.2.14">
  <diagram name="Página-1" id="YC2EC7ziYI2DrhpUggpL">
    <mxGraphModel dx="1562" dy="398" grid="0" gridSize="10" guides="1" tooltips="1" connect="1" arrows="1" fold="1" page="0" pageScale="1" pageWidth="827" pageHeight="1169" math="0" shadow="0">
      <root>
        <mxCell id="0" />
        <mxCell id="1" parent="0" />
        <mxCell id="2FKQZeP5Ie7npPBzcBcL-1" value="" style="rounded=0;whiteSpace=wrap;html=1;" vertex="1" parent="1">
          <mxGeometry x="-97" y="15" width="606" height="327" as="geometry" />
        </mxCell>
        <mxCell id="2FKQZeP5Ie7npPBzcBcL-2" value="" style="rounded=0;whiteSpace=wrap;html=1;" vertex="1" parent="1">
          <mxGeometry x="54.5" y="53" width="303" height="215" as="geometry" />
        </mxCell>
        <mxCell id="2FKQZeP5Ie7npPBzcBcL-3" value="AVATAR" style="ellipse;whiteSpace=wrap;html=1;" vertex="1" parent="1">
          <mxGeometry x="164" y="65" width="80" height="80" as="geometry" />
        </mxCell>
        <mxCell id="2FKQZeP5Ie7npPBzcBcL-4" value="DESCRIPCIÓN" style="rounded=0;whiteSpace=wrap;html=1;" vertex="1" parent="1">
          <mxGeometry x="112" y="164" width="195" height="29" as="geometry" />
        </mxCell>
        <mxCell id="2FKQZeP5Ie7npPBzcBcL-6" value="CONTACTO" style="rounded=0;whiteSpace=wrap;html=1;" vertex="1" parent="1">
          <mxGeometry x="112" y="201" width="195" height="29" as="geometry" />
        </mxCell>
        <mxCell id="2FKQZeP5Ie7npPBzcBcL-7" value="EDUCACION" style="rounded=0;whiteSpace=wrap;html=1;" vertex="1" parent="1">
          <mxGeometry x="82" y="233" width="100" height="29" as="geometry" />
        </mxCell>
        <mxCell id="2FKQZeP5Ie7npPBzcBcL-8" value="EXPERIENCIA" style="rounded=0;whiteSpace=wrap;html=1;" vertex="1" parent="1">
          <mxGeometry x="222" y="233" width="121" height="29" as="geometry" />
        </mxCell>
      </root>
    </mxGraphModel>
  </diagram>
</mxfile>
